# xmcd CD database file
#
# Track frame offsets:
#	150
#	13475
#	32925
#	47000
#	60425
#	82600
#	101400
#	115100
#	129900
#	146175
#	159650
#	171000
#	181650
#	196550
#	212625
#	229800
#	250050
#	277175
#	289475
#
# Disc length: 4121 seconds
#
# Revision: 0
# Processed by: cddbd v1.5.1PL0 Copyright (c) Steve Scherf et al.
# Submitted via: CDex 1.51
#
DISCID=07101713
DTITLE=Jack Teagarden - Jazz Gallery - CD2
DYEAR=1994
DGENRE=Jazz
TTITLE0=Bud Freeman and his Famous Chicagoans - Jack hits the Road
TTITLE1=Jack Teagarden's Big Eight - Big Eight Blues
TTITLE2=Jack Teagarden and his Orchestra - Blue River
TTITLE3=Jack Teagarden's Chicagoans - Stars fell on Alabama
TTITLE4=V-Disc all Stars - Jack Armstrong Blues
TTITLE5=Jack Teagarden and his Swingin' Gates - Rockin Chair
TTITLE6=Eddie Condon and his Orchestra - Sheik of Araby
TTITLE7=Jack Teagarden's Big Eight - Blues after Hours
TTITLE8=Louis Armstrong and his All Stars - St. James Infirmary
TTITLE9=Lous Armstrong and his Orchestra - Fifty Fifty Blues
TTITLE10=Eddie Condon and his Orchestra - Nobody Knows
TTITLE11=Louis Armstrong and the All Stars - Lover
TTITLE12=Louis Armstrong and the All Stars - Baby won't you please come Home
TTITLE13=Louis Armstrong and the All Stars - Stardust
TTITLE14=Jack Teagarden and his Orchestra - Meet me where they Play the Blues
TTITLE15=Bobby Hackett and his Jazz Band - That's a Plenty
TTITLE16=Bud Freeman's summa cum laude Oechestra - Forty seveth and State
TTITLE17=Bobby Hackett - Jack Teagarden - I found a new Baby
TTITLE18=Chicago and all that Jazz - Logan Square
EXTD=YEAR: 1994
EXTT0=
EXTT1=
EXTT2=
EXTT3=
EXTT4=
EXTT5=
EXTT6=
EXTT7=
EXTT8=
EXTT9=
EXTT10=
EXTT11=
EXTT12=
EXTT13=
EXTT14=
EXTT15=
EXTT16=
EXTT17=
EXTT18=
PLAYORDER=
